<?xml version="1.0" encoding="UTF-8" standalone="no"?>
<svg width="47px" height="70px" viewBox="0 0 47 70" version="1.1" xmlns="http://www.w3.org/2000/svg" xmlns:xlink="http://www.w3.org/1999/xlink">
    <!-- Generator: Sketch 39.1 (31720) - http://www.bohemiancoding.com/sketch -->
    <title>Page 1</title>
    <desc>Created with Sketch.</desc>
    <defs></defs>
    <g id="Page-1" stroke="none" stroke-width="1" fill="none" fill-rule="evenodd">
        <g id="Баннер-4" transform="translate(-105.000000, -11.000000)">
            <g id="Page-1" transform="translate(106.000000, 12.000000)">
                <path d="M16.1780625,26.7330259 L15.663375,26.1003879 C13.480875,23.3533707 12.1768125,19.8871293 12.1768125,16.1159741 C12.1768125,7.21481897 19.4419688,-0.000232758621 28.4049375,-0.000232758621 C37.3679063,-0.000232758621 44.6330625,7.21481897 44.6330625,16.1159741 C44.6330625,19.3280431 43.6857188,22.32225 42.0549375,24.8365086 L41.4493125,25.4267845" id="Stroke-1" stroke="#00A146" stroke-width="1.5" stroke-linecap="round" stroke-linejoin="round"></path>
                <g id="Group-6" transform="translate(0.000000, 21.342103)">
                    <path d="M30.03225,1.56790862 C26.0811562,-0.450108621 21.1063125,0.171356897 17.801625,3.45325345 C14.98725,6.24821897 13.9935,10.1241155 15.1377187,13.7565466 L16.2931875,17.9699431 L10.9935,17.9904259 L11.00475,23.2833569 L5.6900625,23.2889431 L5.6506875,28.5334603 L0.29521875,28.4966845 L0.2413125,28.5483569 L-9.375e-05,34.9869259 L6.4831875,34.748581 L21.021,20.3110293 C23.5733437,21.4459603 26.3413125,21.5157879 28.819125,20.6061672" id="Fill-3" fill="#D6EBDB"></path>
                    <path d="M30.03225,1.56790862 C26.0811562,-0.450108621 21.1063125,0.171356897 17.801625,3.45325345 C14.98725,6.24821897 13.9935,10.1241155 15.1377187,13.7565466 L16.2931875,17.9699431 L10.9935,17.9904259 L11.00475,23.2833569 L5.6900625,23.2889431 L5.6506875,28.5334603 L0.29521875,28.4966845 L0.2413125,28.5483569 L-9.375e-05,34.9869259 L6.4831875,34.748581 L21.021,20.3110293 C23.5733437,21.4459603 26.3413125,21.5157879 28.819125,20.6061672" id="Stroke-5" stroke="#00A146" stroke-width="1.65517241" stroke-linecap="round" stroke-linejoin="round"></path>
                </g>
                <path d="M37.9505625,42.2890293 C41.7699375,40.7430466 44.3705625,37.0054086 44.3705625,32.6295466 C44.3705625,30.8270638 43.9022813,29.1297879 43.0815,27.6503741 C41.2815,24.4108397 37.7850938,22.2098741 33.8082188,22.2098741 C32.5857188,22.2098741 31.4100938,22.4184259 30.3136875,22.7987534 C26.2065,24.2246328 23.2215,28.0874948 23.2215,32.6295466 C23.2215,36.5831845 25.2460313,40.0200983 28.642125,41.7872017 L32.44275,43.9551155 L28.7016563,47.6904259 L32.4741563,51.4262017 L28.7180625,55.1619776 L32.7994688,58.8958914 L29.3588438,62.6316672 L33.654,67.4283569 L37.9505625,62.7075466 L37.9505625,47.6019776 L37.9505625,42.76665 L37.9505625,42.2890293 Z" id="Fill-7" fill="#FFFFFF"></path>
                <path d="M37.9505625,42.2890293 C41.7699375,40.7430466 44.3705625,37.0054086 44.3705625,32.6295466 C44.3705625,30.8270638 43.9022813,29.1297879 43.0815,27.6503741 C41.2815,24.4108397 37.7850938,22.2098741 33.8082188,22.2098741 C32.5857188,22.2098741 31.4100938,22.4184259 30.3136875,22.7987534 C26.2065,24.2246328 23.2215,28.0874948 23.2215,32.6295466 C23.2215,36.5831845 25.2460313,40.0200983 28.642125,41.7872017 L32.44275,43.9551155 L28.7016563,47.6904259 L32.4741563,51.4262017 L28.7180625,55.1619776 L32.7994688,58.8958914 L29.3588438,62.6316672 L33.654,67.4283569 L37.9505625,62.7075466 L37.9505625,47.6019776 L37.9505625,42.76665 L37.9505625,42.2890293 L37.9505625,42.2890293 Z" id="Stroke-9" stroke="#00A146" stroke-width="1.5" stroke-linecap="round" stroke-linejoin="round"></path>
                <path d="M36.6676406,30.5591586 C36.6676406,32.1307448 35.3860781,33.4039345 33.8031094,33.4039345 C32.2224844,33.4039345 30.9404531,32.1307448 30.9404531,30.5591586 C30.9404531,28.9875724 32.2224844,27.7143828 33.8031094,27.7143828 C35.3860781,27.7143828 36.6676406,28.9875724 36.6676406,30.5591586" id="Fill-11" fill="#D6EBDB"></path>
                <path d="M36.6676406,30.5591586 C36.6676406,32.1307448 35.3860781,33.4039345 33.8031094,33.4039345 C32.2224844,33.4039345 30.9404531,32.1307448 30.9404531,30.5591586 C30.9404531,28.9875724 32.2224844,27.7143828 33.8031094,27.7143828 C35.3860781,27.7143828 36.6676406,28.9875724 36.6676406,30.5591586 L36.6676406,30.5591586 Z" id="Stroke-13" stroke="#00A146" stroke-width="1.5" stroke-linecap="round" stroke-linejoin="round"></path>
            </g>
        </g>
    </g>
</svg>